<svg id="Layer_1" class="testit" data-name="Layer 1" xmlns="http://www.w3.org/2000/svg" viewBox="0 0 170 122"><title>SWCD_Navbar_Logo</title><path d="M36.1,20.9a.43.43,0,0,1,.46-.46h7c2.72,0,4.17,1.45,4.17,4.17v5.68c0,2.69-1.45,4.14-4.17,4.17l-3.65,0v5.79a.41.41,0,0,1-.46.46l-2.84,0a.43.43,0,0,1-.46-.46Zm6.66,9.82a1,1,0,0,0,1.16-1.16V25.33a1,1,0,0,0-1.16-1.16l-2.9,0v6.55Z" fill="#000"/><path d="M64.78,24.61c0-2.72,1.45-4.17,4.17-4.17H72.2c2.72,0,4.17,1.45,4.17,4.17V36.55c0,2.72-1.45,4.17-4.17,4.17H69c-2.72,0-4.17-1.45-4.17-4.17ZM71.56,37a1,1,0,0,0,1.16-1.16V25.33a1,1,0,0,0-1.16-1.16H69.7a1,1,0,0,0-1.16,1.16V35.82A1,1,0,0,0,69.7,37Z" fill="#000"/><path d="M97.69,36.9h5.74a.41.41,0,0,1,.46.46v2.9a.4.4,0,0,1-.46.46H94.21a.41.41,0,0,1-.46-.46V20.9a.43.43,0,0,1,.46-.46h3a.41.41,0,0,1,.46.46Z" fill="#000"/><path d="M130.6,40.72a.66.66,0,0,1-.67-.43l-3.65-7.16-1.07,2.06v5a.52.52,0,0,1-.58.58h-2.78a.52.52,0,0,1-.58-.58V21a.52.52,0,0,1,.58-.58h2.78a.52.52,0,0,1,.58.58v7.53l4.46-7.68a.73.73,0,0,1,.67-.43h3c.43,0,.64.32.41.7l-4.93,8.66,5.24,10.26c.2.38,0,.67-.43.67Z" fill="#000"/><path d="M31.76,61c4.77,0,7.3,2.54,7.3,7.3v5.37a.72.72,0,0,1-.81.81H33a.75.75,0,0,1-.81-.81v-4a1.8,1.8,0,0,0-2-2H27.71a1.84,1.84,0,0,0-2,2v7l12.07,4a1.86,1.86,0,0,1,1.32,1.88V94.26c0,4.77-2.54,7.3-7.3,7.3H26.09c-4.72,0-7.3-2.54-7.3-7.3V88.94a.72.72,0,0,1,.81-.81h5.27a.7.7,0,0,1,.81.81v3.9a1.82,1.82,0,0,0,2,2h2.43a1.8,1.8,0,0,0,2-2V86.1l-12-4a1.81,1.81,0,0,1-1.37-1.88v-12c0-4.77,2.59-7.3,7.3-7.3Z" fill="#000"/><path d="M84.29,61a.89.89,0,0,1,1,1.06L80.89,100.6a.93.93,0,0,1-1.06,1h-5a1.05,1.05,0,0,1-1.12-.91L68.47,77.73l-5.32,23a1.05,1.05,0,0,1-1.12.86H57a.93.93,0,0,1-1.06-1L51.74,62.06a.89.89,0,0,1,1-1.06h4.82a1,1,0,0,1,1.06,1l2,23.73h.25l5-23.78A1.05,1.05,0,0,1,67,61h3a1.05,1.05,0,0,1,1.12.91l5,23.78h.25L78.41,62a1,1,0,0,1,1.06-1Z" fill="#000"/><path d="M117.25,73.78a.75.75,0,0,1-.81.81h-5.07a.72.72,0,0,1-.81-.81V69.72a1.82,1.82,0,0,0-2-2h-2.64a1.8,1.8,0,0,0-2,2V92.84a1.8,1.8,0,0,0,2,2h2.64a1.8,1.8,0,0,0,2-2V88.78a.72.72,0,0,1,.81-.81h5.07a.75.75,0,0,1,.81.81v5.48c0,4.77-2.59,7.3-7.3,7.3h-5.68c-4.77,0-7.35-2.54-7.35-7.3v-26c0-4.77,2.59-7.3,7.35-7.3h5.68c4.72,0,7.3,2.54,7.3,7.3Z" fill="#000"/><path d="M130.94,61.81a.72.72,0,0,1,.81-.81h12.17c4.77,0,7.3,2.59,7.3,7.35V94.26c0,4.77-2.54,7.3-7.3,7.3H131.75a.7.7,0,0,1-.81-.81ZM142.5,94.87a1.8,1.8,0,0,0,2-2V69.77a1.84,1.84,0,0,0-2-2.08h-4.66V94.87Z" fill="#000"/></svg>