<?xml version="1.0" encoding="utf-8"?>
<!-- Generator: Adobe Illustrator 18.1.0, SVG Export Plug-In . SVG Version: 6.00 Build 0)  -->
<svg version="1.1" id="Layer_1" xmlns="http://www.w3.org/2000/svg" xmlns:xlink="http://www.w3.org/1999/xlink" x="0px" y="0px"
	 viewBox="0 0 288 148" enable-background="new 0 0 288 148" xml:space="preserve">
<g>
	<path fill="#939598" d="M21.2,106.2c0,0.1-0.1,0.2-0.2,0.2h-1.2c-0.1,0-0.2-0.1-0.2-0.2v-1.1c0-0.3-0.2-0.5-0.5-0.5h-0.8
		c-0.4,0-0.5,0.2-0.5,0.5v4.7c0,0.3,0.2,0.5,0.5,0.5h0.8c0.3,0,0.5-0.2,0.5-0.5v-1.1c0-0.1,0.1-0.2,0.2-0.2H21
		c0.1,0,0.2,0.1,0.2,0.2v1.4c0,1.2-0.7,1.9-1.9,1.9h-1.5c-1.2,0-1.9-0.6-1.9-1.9v-5.4c0-1.2,0.7-1.9,1.9-1.9h1.5
		c1.2,0,1.9,0.7,1.9,1.9V106.2z"/>
	<path fill="#939598" d="M32.5,110.3c0.3,0,0.5-0.2,0.5-0.5v-4.7c0-0.3-0.2-0.5-0.5-0.5h-0.8c-0.3,0-0.5,0.2-0.5,0.5v4.7
		c0,0.4,0.2,0.5,0.5,0.5H32.5z M29.5,104.8c0-1.2,0.6-1.9,1.9-1.9h1.5c1.2,0,1.9,0.7,1.9,1.9v5.4c0,1.2-0.6,1.9-1.9,1.9h-1.5
		c-1.2,0-1.9-0.7-1.9-1.9V104.8z"/>
	<path fill="#939598" d="M48.3,102.9c0.1,0,0.2,0.1,0.2,0.2v8.7c0,0.1-0.1,0.2-0.2,0.2h-1c-0.1,0-0.2-0.1-0.2-0.2l-2.4-5v4.9
		c0,0.1-0.1,0.2-0.2,0.2h-1.2c-0.1,0-0.2-0.1-0.2-0.2v-8.7c0-0.1,0.1-0.2,0.2-0.2h1c0.1,0,0.2,0.1,0.2,0.2l2.4,5v-4.9
		c0-0.1,0.1-0.2,0.2-0.2H48.3z"/>
	<path fill="#939598" d="M59.8,102.9c1.2,0,1.9,0.7,1.9,1.9v0.9c0,0.1-0.1,0.2-0.2,0.2h-1.3c-0.1,0-0.2-0.1-0.2-0.2v-0.5
		c0-0.3-0.2-0.5-0.5-0.5h-0.7c-0.3,0-0.5,0.2-0.5,0.5v1.1l3.1,1c0.2,0.1,0.3,0.2,0.3,0.5v2.4c0,1.2-0.7,1.9-1.9,1.9h-1.5
		c-1.2,0-1.9-0.7-1.9-1.9v-0.8c0-0.1,0.1-0.2,0.2-0.2H58c0.1,0,0.2,0.1,0.2,0.2v0.5c0,0.3,0.2,0.5,0.5,0.5h0.7
		c0.3,0,0.5-0.2,0.5-0.5v-1.3l-3.1-1c-0.2-0.1-0.4-0.2-0.4-0.5v-2.2c0-1.2,0.7-1.9,1.9-1.9H59.8z"/>
	<path fill="#939598" d="M75.2,104.4c0,0.1-0.1,0.2-0.2,0.2h-3.2v2h2.4c0.1,0,0.2,0.1,0.2,0.2v1.3c0,0.1-0.1,0.2-0.2,0.2h-2.4v1.9
		H75c0.2,0,0.2,0.1,0.2,0.2v1.3c0,0.1-0.1,0.2-0.2,0.2h-4.8c-0.1,0-0.2-0.1-0.2-0.2v-8.7c0-0.1,0.1-0.2,0.2-0.2H75
		c0.2,0,0.2,0.1,0.2,0.2V104.4z"/>
	<path fill="#939598" d="M85.5,107.6c0.3,0,0.5-0.2,0.5-0.5v-2c0-0.3-0.2-0.5-0.5-0.5h-1.3v3H85.5z M87.7,107.4
		c0,0.8-0.2,1.3-0.7,1.6l0.7,2.8c0,0.2,0,0.2-0.2,0.2h-1.3c-0.1,0-0.2-0.1-0.2-0.2l-0.6-2.6h-1.2v2.5c0,0.1-0.1,0.2-0.2,0.2h-1.3
		c-0.1,0-0.2-0.1-0.2-0.2v-8.7c0-0.1,0.1-0.2,0.2-0.2h3.1c1.2,0,1.9,0.7,1.9,1.9V107.4z"/>
	<path fill="#939598" d="M101.5,102.9c0.2,0,0.3,0.1,0.2,0.3l-2.1,8.6c0,0.2-0.1,0.2-0.3,0.2h-1.3c-0.2,0-0.2-0.1-0.3-0.2l-2.1-8.6
		c0-0.2,0-0.3,0.2-0.3h1.2c0.2,0,0.2,0.1,0.3,0.2l1.3,5.9l1.3-5.9c0-0.2,0.1-0.2,0.3-0.2H101.5z"/>
	<path fill="#939598" d="M110.5,105.1l-0.8,3.5h1.6L110.5,105.1z M112.4,112c-0.1,0-0.2-0.1-0.2-0.2l-0.4-1.6h-2.4l-0.4,1.6
		c0,0.1-0.1,0.2-0.2,0.2h-1.3c-0.1,0-0.2-0.1-0.2-0.2l2.2-8.7c0-0.1,0.1-0.2,0.2-0.2h1.8c0.1,0,0.2,0.1,0.2,0.2l2.2,8.7
		c0,0.1,0,0.2-0.2,0.2H112.4z"/>
	<path fill="#939598" d="M124.7,102.9c0.1,0,0.2,0.1,0.2,0.2v1.3c0,0.1-0.1,0.2-0.2,0.2h-1.5v7.2c0,0.1-0.1,0.2-0.2,0.2h-1.4
		c-0.1,0-0.2-0.1-0.2-0.2v-7.2h-1.5c-0.1,0-0.2-0.1-0.2-0.2v-1.3c0-0.1,0.1-0.2,0.2-0.2H124.7z"/>
	<path fill="#939598" d="M132.7,112c-0.1,0-0.2-0.1-0.2-0.2v-8.7c0-0.1,0.1-0.2,0.2-0.2h1.4c0.1,0,0.2,0.1,0.2,0.2v8.7
		c0,0.1-0.1,0.2-0.2,0.2H132.7z"/>
	<path fill="#939598" d="M145,110.3c0.3,0,0.5-0.2,0.5-0.5v-4.7c0-0.3-0.2-0.5-0.5-0.5h-0.8c-0.3,0-0.5,0.2-0.5,0.5v4.7
		c0,0.4,0.2,0.5,0.5,0.5H145z M142,104.8c0-1.2,0.6-1.9,1.9-1.9h1.5c1.2,0,1.9,0.7,1.9,1.9v5.4c0,1.2-0.7,1.9-1.9,1.9h-1.5
		c-1.2,0-1.9-0.7-1.9-1.9V104.8z"/>
	<path fill="#939598" d="M160.8,102.9c0.1,0,0.2,0.1,0.2,0.2v8.7c0,0.1-0.1,0.2-0.2,0.2h-1c-0.1,0-0.2-0.1-0.2-0.2l-2.4-5v4.9
		c0,0.1-0.1,0.2-0.2,0.2h-1.2c-0.1,0-0.2-0.1-0.2-0.2v-8.7c0-0.1,0.1-0.2,0.2-0.2h1c0.1,0,0.2,0.1,0.2,0.2l2.4,5v-4.9
		c0-0.1,0.1-0.2,0.2-0.2H160.8z"/>
	<path fill="#939598" d="M181.5,110.3c0.3,0,0.5-0.2,0.5-0.5v-4.6c0-0.4-0.2-0.5-0.5-0.5h-1.2v5.7H181.5z M178.5,103.1
		c0-0.1,0.1-0.2,0.2-0.2h3.1c1.2,0,1.9,0.7,1.9,1.9v5.3c0,1.2-0.7,1.9-1.9,1.9h-3.1c-0.1,0-0.2-0.1-0.2-0.2V103.1z"/>
	<path fill="#939598" d="M192.2,112c-0.1,0-0.2-0.1-0.2-0.2v-8.7c0-0.1,0.1-0.2,0.2-0.2h1.4c0.1,0,0.2,0.1,0.2,0.2v8.7
		c0,0.1-0.1,0.2-0.2,0.2H192.2z"/>
	<path fill="#939598" d="M204.8,102.9c1.2,0,1.9,0.7,1.9,1.9v0.9c0,0.1-0.1,0.2-0.2,0.2h-1.3c-0.1,0-0.2-0.1-0.2-0.2v-0.5
		c0-0.3-0.2-0.5-0.5-0.5h-0.7c-0.3,0-0.5,0.2-0.5,0.5v1.1l3.1,1c0.2,0.1,0.3,0.2,0.3,0.5v2.4c0,1.2-0.7,1.9-1.9,1.9h-1.5
		c-1.2,0-1.9-0.7-1.9-1.9v-0.8c0-0.1,0.1-0.2,0.2-0.2h1.3c0.1,0,0.2,0.1,0.2,0.2v0.5c0,0.3,0.2,0.5,0.5,0.5h0.7
		c0.3,0,0.5-0.2,0.5-0.5v-1.3l-3.1-1c-0.2-0.1-0.4-0.2-0.4-0.5v-2.2c0-1.2,0.7-1.9,1.9-1.9H204.8z"/>
	<path fill="#939598" d="M218.7,102.9c0.1,0,0.2,0.1,0.2,0.2v1.3c0,0.1-0.1,0.2-0.2,0.2h-1.5v7.2c0,0.1-0.1,0.2-0.2,0.2h-1.4
		c-0.1,0-0.2-0.1-0.2-0.2v-7.2h-1.5c-0.1,0-0.2-0.1-0.2-0.2v-1.3c0-0.1,0.1-0.2,0.2-0.2H218.7z"/>
	<path fill="#939598" d="M229.5,107.6c0.3,0,0.5-0.2,0.5-0.5v-2c0-0.3-0.2-0.5-0.5-0.5h-1.3v3H229.5z M231.7,107.4
		c0,0.8-0.2,1.3-0.7,1.6l0.7,2.8c0,0.2,0,0.2-0.2,0.2h-1.3c-0.1,0-0.2-0.1-0.2-0.2l-0.6-2.6h-1.2v2.5c0,0.1-0.1,0.2-0.2,0.2h-1.3
		c-0.1,0-0.2-0.1-0.2-0.2v-8.7c0-0.1,0.1-0.2,0.2-0.2h3.1c1.2,0,1.9,0.7,1.9,1.9V107.4z"/>
	<path fill="#939598" d="M240.2,112c-0.1,0-0.2-0.1-0.2-0.2v-8.7c0-0.1,0.1-0.2,0.2-0.2h1.4c0.1,0,0.2,0.1,0.2,0.2v8.7
		c0,0.1-0.1,0.2-0.2,0.2H240.2z"/>
	<path fill="#939598" d="M254.7,106.2c0,0.1-0.1,0.2-0.2,0.2h-1.2c-0.1,0-0.2-0.1-0.2-0.2v-1.1c0-0.3-0.2-0.5-0.5-0.5h-0.8
		c-0.4,0-0.5,0.2-0.5,0.5v4.7c0,0.3,0.2,0.5,0.5,0.5h0.8c0.3,0,0.5-0.2,0.5-0.5v-1.1c0-0.1,0.1-0.2,0.2-0.2h1.2
		c0.1,0,0.2,0.1,0.2,0.2v1.4c0,1.2-0.7,1.9-1.9,1.9h-1.5c-1.2,0-1.9-0.6-1.9-1.9v-5.4c0-1.2,0.7-1.9,1.9-1.9h1.5
		c1.2,0,1.9,0.7,1.9,1.9V106.2z"/>
	<path fill="#939598" d="M267.7,102.9c0.1,0,0.2,0.1,0.2,0.2v1.3c0,0.1-0.1,0.2-0.2,0.2h-1.5v7.2c0,0.1-0.1,0.2-0.2,0.2h-1.4
		c-0.1,0-0.2-0.1-0.2-0.2v-7.2h-1.5c-0.1,0-0.2-0.1-0.2-0.2v-1.3c0-0.1,0.1-0.2,0.2-0.2H267.7z"/>
	<path fill="#939598" d="M122.8,36.1c0.4,0,0.5-0.2,0.5-0.5v-1.9c0-0.3-0.2-0.5-0.5-0.5l-1.3,0v2.9L122.8,36.1z M119.8,31.7
		c0-0.1,0.1-0.2,0.2-0.2h3.1c1.2,0,1.9,0.6,1.9,1.9v2.5c0,1.2-0.7,1.9-1.9,1.9l-1.6,0v2.6c0,0.1-0.1,0.2-0.2,0.2l-1.3,0
		c-0.1,0-0.2-0.1-0.2-0.2V31.7z"/>
	<path fill="#939598" d="M135.4,38.9c0.3,0,0.5-0.2,0.5-0.5v-4.7c0-0.3-0.2-0.5-0.5-0.5h-0.8c-0.3,0-0.5,0.2-0.5,0.5v4.7
		c0,0.4,0.2,0.5,0.5,0.5H135.4z M132.3,33.4c0-1.2,0.6-1.9,1.9-1.9h1.5c1.2,0,1.9,0.7,1.9,1.9v5.4c0,1.2-0.7,1.9-1.9,1.9h-1.5
		c-1.2,0-1.9-0.7-1.9-1.9V33.4z"/>
	<path fill="#939598" d="M147.6,38.9h2.6c0.1,0,0.2,0.1,0.2,0.2v1.3c0,0.1-0.1,0.2-0.2,0.2H146c-0.1,0-0.2-0.1-0.2-0.2v-8.7
		c0-0.1,0.1-0.2,0.2-0.2h1.4c0.1,0,0.2,0.1,0.2,0.2V38.9z"/>
	<path fill="#939598" d="M162.5,40.6c-0.2,0-0.2-0.1-0.3-0.2l-1.6-3.2l-0.5,0.9v2.2c0,0.2-0.1,0.3-0.3,0.3h-1.2
		c-0.2,0-0.3-0.1-0.3-0.3v-8.6c0-0.2,0.1-0.3,0.3-0.3h1.2c0.2,0,0.3,0.1,0.3,0.3v3.4l2-3.4c0.1-0.1,0.2-0.2,0.3-0.2h1.4
		c0.2,0,0.3,0.1,0.2,0.3l-2.2,3.9l2.4,4.6c0.1,0.2,0,0.3-0.2,0.3H162.5z"/>
	<path d="M52.7,61.4c2.4,0,3.7,1.3,3.7,3.7v2.7c0,0.3-0.1,0.4-0.4,0.4h-2.7c-0.3,0-0.4-0.2-0.4-0.4v-2c0-0.7-0.3-1-1-1h-1.2
		c-0.6,0-1,0.4-1,1v3.6l6.2,2c0.4,0.2,0.7,0.5,0.7,1v6c0,2.4-1.3,3.7-3.7,3.7h-2.9c-2.4,0-3.7-1.3-3.7-3.7v-2.7
		c0-0.3,0.2-0.4,0.4-0.4h2.7c0.3,0,0.4,0.1,0.4,0.4v2c0,0.7,0.4,1,1,1h1.2c0.7,0,1-0.3,1-1v-3.4l-6.1-2c-0.5-0.2-0.7-0.5-0.7-1v-6.1
		c0-2.4,1.3-3.7,3.7-3.7H52.7z"/>
	<path d="M70.3,78.8c0.7,0,1-0.3,1-1v-12c0-0.7-0.4-1-1-1h-1.5c-0.7,0-1,0.4-1,1v12c0,0.7,0.4,1,1,1H70.3z M64.3,65.1
		c0-2.4,1.3-3.7,3.7-3.7h2.9c2.4,0,3.7,1.3,3.7,3.7v13.3c0,2.4-1.3,3.7-3.7,3.7H68c-2.4,0-3.7-1.3-3.7-3.7V65.1z"/>
	<path d="M85.6,61.4c0.3,0,0.4,0.2,0.4,0.4v19.9c0,0.3-0.2,0.4-0.4,0.4h-2.7c-0.3,0-0.4-0.2-0.4-0.4V61.8c0-0.3,0.1-0.4,0.4-0.4
		H85.6z"/>
	<path d="M97.2,78.7h6.2c0.3,0,0.4,0.2,0.4,0.4v2.6c0,0.3-0.1,0.4-0.4,0.4h-9.3c-0.3,0-0.4-0.1-0.4-0.4V61.8c0-0.3,0.2-0.4,0.4-0.4
		h2.7c0.3,0,0.4,0.2,0.4,0.4V78.7z"/>
	<path d="M126.4,74.9c-0.6,0-0.8,0.3-0.8,0.8v2.8c0,0.6,0.3,0.8,0.8,0.8h2v-4.5H126.4z M129.6,65.4c0.3,0,0.4,0.1,0.4,0.4v1.9
		c0,0.3-0.1,0.4-0.4,0.4h-3.2c-0.6,0-0.8,0.3-0.8,0.8v2.4c0,0.5,0.3,0.8,0.8,0.8h2v-0.8c0-0.3,0.1-0.4,0.4-0.4h2
		c0.3,0,0.4,0.1,0.4,0.4v0.8h0.9c0.3,0,0.4,0.1,0.4,0.4v1.9c0,0.3-0.1,0.4-0.4,0.4h-0.9v6.8c0,0.3-0.1,0.4-0.4,0.4h-5
		c-2,0-3-1.1-3-3v-4.1c0-0.8,0.6-1.4,1.3-1.5v0c-0.8-0.1-1.3-0.7-1.3-1.5v-3.7c0-2,1.1-3,3-3H129.6z"/>
	<path d="M167.1,61.4c0.3,0,0.5,0.2,0.5,0.5l-2.2,19.7c0,0.3-0.2,0.5-0.5,0.5h-2.5c-0.3,0-0.5-0.2-0.6-0.5L159,70l-2.7,11.8
		c-0.1,0.3-0.3,0.4-0.6,0.4h-2.6c-0.3,0-0.5-0.2-0.5-0.5l-2.1-19.7c0-0.3,0.2-0.5,0.5-0.5h2.5c0.3,0,0.5,0.2,0.5,0.5l1,12.1h0.1
		l2.6-12.2c0.1-0.3,0.3-0.5,0.6-0.5h1.6c0.3,0,0.5,0.2,0.6,0.5l2.5,12.2h0.1l1.1-12.1c0-0.3,0.2-0.5,0.5-0.5H167.1z"/>
	<path d="M179.9,65.9l-1.7,9.1h3.3L179.9,65.9z M183.4,82.1c-0.2,0-0.4-0.1-0.4-0.4l-0.7-3.8h-4.6l-0.7,3.8
		c-0.1,0.2-0.2,0.4-0.4,0.4h-2.8c-0.3,0-0.4-0.2-0.3-0.4l4.3-19.9c0.1-0.3,0.2-0.4,0.4-0.4h3.6c0.2,0,0.4,0.1,0.4,0.4l4.3,19.9
		c0.1,0.3-0.1,0.4-0.4,0.4H183.4z"/>
	<path d="M201.2,61.4c0.3,0,0.4,0.2,0.4,0.4v2.6c0,0.3-0.1,0.4-0.4,0.4h-3v16.9c0,0.3-0.1,0.4-0.4,0.4h-2.7c-0.3,0-0.4-0.1-0.4-0.4
		V64.8h-3c-0.3,0-0.4-0.2-0.4-0.4v-2.6c0-0.3,0.2-0.4,0.4-0.4H201.2z"/>
	<path d="M219.3,64.4c0,0.3-0.1,0.4-0.4,0.4h-6.5V70h5c0.3,0,0.4,0.2,0.4,0.4V73c0,0.3-0.2,0.4-0.4,0.4h-5v5.2h6.5
		c0.3,0,0.4,0.1,0.4,0.4v2.6c0,0.3-0.1,0.4-0.4,0.4h-9.5c-0.2,0-0.4-0.2-0.4-0.4V61.8c0-0.3,0.2-0.4,0.4-0.4h9.5
		c0.3,0,0.4,0.2,0.4,0.4V64.4z"/>
	<path d="M233.3,71.8c0.7,0,1-0.4,1-1v-4.9c0-0.7-0.4-1-1-1h-2.6v7H233.3z M237.8,71.5c0,1.7-0.6,2.9-1.9,3.4l1.8,6.8
		c0.1,0.3-0.1,0.5-0.4,0.5h-2.7c-0.3,0-0.4-0.1-0.4-0.4l-1.7-6.6h-1.8v6.5c0,0.3-0.2,0.4-0.4,0.4h-2.7c-0.3,0-0.4-0.2-0.4-0.4V61.8
		c0-0.3,0.2-0.4,0.4-0.4h6.5c2.4,0,3.7,1.3,3.7,3.7V71.5z"/>
	<rect x="16" y="31.5" fill="none" width="251.9" height="80.5"/>
</g>
</svg>
